<?xml version="1.0" encoding="utf-8"?>
<!-- Generator: Adobe Illustrator 17.0.0, SVG Export Plug-In . SVG Version: 6.00 Build 0)  -->
<svg version="1.2" baseProfile="tiny" id="Laag_1" xmlns="http://www.w3.org/2000/svg" xmlns:xlink="http://www.w3.org/1999/xlink"
	 x="0px" y="0px" width="250px" height="100px" viewBox="0 0 250 100" xml:space="preserve">
<g>
	<path fill-rule="evenodd" fill="#0072BB" d="M4.756,16.81c2.902,5.078,2.902,8.545,2.902,11.608v29.584
		c0,3.224-0.081,6.771-2.902,11.608h14.429c-2.983-5.159-2.983-8.626-2.983-11.608V28.418c0-3.144,0.081-6.691,2.983-11.608H4.756
		L4.756,16.81z"/>
	<path fill-rule="evenodd" fill="#0072BB" d="M33.292,16.81c1.29,1.29,2.015,2.338,2.015,3.466c0,0.403-0.403,1.371-1.209,2.338
		l-17.089,19.83L34.743,69.61h14.026c-4.192-2.58-6.529-5.159-8.464-8.061L25.15,39.059l14.026-14.993
		c2.741-2.902,5.643-5.32,8.787-7.255H33.292L33.292,16.81z"/>
	<path fill-rule="evenodd" fill="#0072BB" d="M56.83,14.231c-3.225,0-4.998,1.693-4.998,4.434c0,2.902,1.692,4.514,4.917,4.514
		c3.385,0,5.159-1.451,5.159-4.433C61.909,16.004,60.055,14.231,56.83,14.231L56.83,14.231z"/>
	<path fill-rule="evenodd" fill="#0072BB" d="M61.102,31.481l-11.286,2.66c2.096,3.305,3.063,6.529,3.063,9.996v13.865
		c0,3.224-0.081,6.771-2.902,11.608h14.107c-2.983-5.159-2.983-8.626-2.983-11.608V31.481L61.102,31.481z"/>
	<path fill-rule="evenodd" fill="#0072BB" d="M102.911,12.538l-11.769,2.66c2.257,3.708,3.627,6.69,3.627,10.802v8.383
		c-2.74-1.693-5.643-2.58-8.787-2.58c-9.109,0-17.17,8.786-17.17,20.717c0,10.64,6.288,17.99,14.268,17.99
		c2.74,0,6.771-1.545,11.688-4.93v5.011l11.124-2.432c-2.821-4.353-2.983-7.738-2.983-10.882V12.538L102.911,12.538z M94.77,36.963
		v27.81c-1.37,0.322-2.821,0.483-4.353,0.483c-8.223,0-12.979-5.159-12.979-14.348c0-9.431,4.756-15.155,12.172-15.155
		C91.304,35.753,92.996,36.157,94.77,36.963L94.77,36.963z"/>
	<path fill-rule="evenodd" fill="#0072BB" d="M135.027,45.508l-14.913,1.935c0.242-8.222,3.305-12.575,8.061-12.575
		C132.609,34.867,135.027,38.494,135.027,45.508L135.027,45.508z M144.297,49.296c-0.242-11.366-5.643-17.492-14.913-17.492
		c-4.836,0-9.512,2.096-12.817,5.804c-3.305,3.708-5.079,8.545-5.079,14.107c0,11.527,7.255,18.876,17.331,18.876
		c6.126,0,11.285-1.948,15.719-6.059c-3.224,0.645-6.046,0.887-8.303,0.887c-10.963,0-16.203-5.079-16.203-15.638v-0.484H144.297
		L144.297,49.296z"/>
	<path fill-rule="evenodd" fill="#0072BB" d="M230.36,80.332l-2.326,0.578c0.4,0.696,0.549,1.318,0.549,2.045v2.252
		c0,0.578-0.015,1.215-0.549,2.134h2.875c-0.548-0.919-0.548-1.571-0.548-2.134v-3.718c0.237-0.045,0.474-0.074,0.711-0.074
		c1.467,0,1.689,0.578,1.689,2.119v1.674c0,0.578,0,1.215-0.533,2.134h2.86c-0.519-0.874-0.534-1.496-0.534-2.045v-2.4
		c0-1.675-0.533-2.504-1.689-2.504c-0.607,0-1.407,0.341-2.504,0.948V80.332L230.36,80.332z"/>
	<path fill-rule="evenodd" fill="#0072BB" d="M201.684,80.481c0.67,0.681,0.936,1.333,1.173,1.926l2,5.055h1.037l2.104-5.292
		c0.178-0.445,0.415-1.023,1.081-1.689h-2.252c0.252,0.444,0.385,0.755,0.385,0.948c0,0.207-0.059,0.445-0.163,0.756l-1.156,3.556
		l-1.304-3.763c-0.089-0.267-0.134-0.459-0.134-0.578c0-0.207,0.178-0.489,0.474-0.918H201.684L201.684,80.481z"/>
	<path fill-rule="evenodd" fill="#0072BB" d="M184.94,80.332l-2.327,0.578c0.4,0.696,0.549,1.318,0.549,2.045v2.252
		c0,0.578-0.015,1.215-0.549,2.134h2.875c-0.548-0.919-0.548-1.571-0.548-2.134V80.332L184.94,80.332z"/>
	<path fill-rule="evenodd" fill="#0072BB" d="M184.021,77.31c-0.741,0-1.081,0.267-1.081,0.845c0,0.578,0.34,0.829,1.081,0.829
		c0.726,0,1.082-0.252,1.082-0.829C185.103,77.576,184.747,77.31,184.021,77.31L184.021,77.31z"/>
	<path fill-rule="evenodd" fill="#0072BB" d="M160.696,86.466v-4.978c0.341-0.06,0.637-0.104,0.889-0.104
		c1.259,0,2.059,0.963,2.059,2.593c0,1.66-0.829,2.667-2,2.667C161.378,86.644,161.052,86.585,160.696,86.466L160.696,86.466z
		 M160.696,76.865l-2.445,0.575c0.534,0.753,0.667,1.314,0.667,2.037v7.984l1.778-0.521c0.4,0.311,0.889,0.492,1.407,0.492
		c1.956,0,3.349-1.544,3.349-3.751c0-1.971-1.111-3.289-2.489-3.289c-0.652,0-1.407,0.311-2.267,0.933V76.865L160.696,76.865z"/>
	<path fill-rule="evenodd" fill="#0072BB" d="M140.245,83.621v-0.074c0-2-1.096-3.156-2.771-3.156c-2.015,0-3.408,1.511-3.408,3.66
		c0,2.118,1.304,3.484,3.334,3.484c1.067,0,2.045-0.402,2.889-1.188c-0.637,0.104-1.171,0.163-1.6,0.163
		c-1.822,0-2.8-0.963-2.8-2.771v-0.119H140.245L140.245,83.621z M138.349,82.999l-2.459,0.356c0.029-1.571,0.489-2.371,1.333-2.371
		C137.919,80.984,138.349,81.681,138.349,82.999L138.349,82.999z"/>
	<path fill-rule="evenodd" fill="#0072BB" d="M109.349,87.402c0.296,0.148,0.607,0.162,0.978,0.162h2.045
		c0.652,0,0.963,0.193,0.963,0.682c0,0.696-0.948,1.393-2.415,1.393c-1.215,0-1.941-0.504-1.941-1.2
		C108.978,88.143,109.112,87.803,109.349,87.402L109.349,87.402z M110.949,80.91c0.726,0,1.2,0.726,1.2,1.956
		c0,0.948-0.37,1.422-1.111,1.422c-0.696,0-1.155-0.711-1.155-1.867C109.882,81.428,110.252,80.91,110.949,80.91L110.949,80.91z
		 M114.994,80.392l-2.148,0.519c-0.608-0.371-1.215-0.519-1.941-0.519c-1.6,0-2.756,0.978-2.756,2.297
		c0,1.037,0.711,1.749,2.03,2.03c-0.993,0.681-1.526,1.141-1.526,1.704c0,0.355,0.193,0.667,0.578,0.919
		c-1.022,0.521-1.541,0.936-1.541,1.455c0,0.8,1.216,1.6,3.023,1.6c1.155,0,2.074-0.267,2.83-0.845
		c0.726-0.562,1.126-1.333,1.126-2.044c0-1.158-0.637-1.573-1.956-1.573h-1.571c-0.666,0-0.978-0.163-0.978-0.623
		c0-0.148,0.045-0.341,0.119-0.563c0.326,0.044,0.593,0.074,0.785,0.074c1.645,0,2.741-0.962,2.741-2.089
		c0-0.652-0.266-1.185-0.785-1.674l1.971,0.652V80.392L114.994,80.392z"/>
	<path fill-rule="evenodd" fill="#0072BB" d="M85.712,81.354v5.008c-0.296,0.059-0.548,0.089-0.756,0.089
		c-1.348,0-2.162-0.949-2.162-2.623c0-1.629,0.859-2.667,2.074-2.667C85.149,81.162,85.43,81.221,85.712,81.354L85.712,81.354z
		 M87.475,76.865l-2.4,0.548c0.355,0.652,0.637,1.126,0.637,1.926v1.497c-0.504-0.311-1.007-0.46-1.556-0.46
		c-1.748,0-3.185,1.586-3.185,3.808c0,1.956,1.141,3.277,2.563,3.277c0.607,0,1.289-0.358,2.178-0.95v0.995l2.297-0.536
		c-0.504-0.904-0.533-1.482-0.533-1.971V76.865L87.475,76.865z"/>
	<path fill-rule="evenodd" fill="#0072BB" d="M62.698,83.621v-0.074c0-2-1.096-3.156-2.771-3.156c-2.015,0-3.408,1.511-3.408,3.66
		c0,2.118,1.304,3.484,3.334,3.484c1.067,0,2.045-0.402,2.889-1.188c-0.637,0.104-1.171,0.163-1.6,0.163
		c-1.822,0-2.8-0.963-2.8-2.771v-0.119H62.698L62.698,83.621z M60.802,82.999l-2.459,0.356c0.029-1.571,0.489-2.371,1.333-2.371
		C60.372,80.984,60.802,81.681,60.802,82.999L60.802,82.999z"/>
	<path fill-rule="evenodd" fill="#0072BB" d="M30.853,80.332l-2.326,0.578c0.4,0.696,0.549,1.318,0.549,2.045v2.252
		c0,0.578-0.015,1.215-0.549,2.134h2.875c-0.548-0.919-0.548-1.571-0.548-2.134v-3.718c0.237-0.045,0.474-0.074,0.711-0.074
		c1.467,0,1.689,0.578,1.689,2.119v1.674c0,0.578,0,1.215-0.533,2.134h2.86c-0.519-0.874-0.534-1.496-0.534-2.045v-2.4
		c0-1.675-0.533-2.504-1.689-2.504c-0.607,0-1.407,0.341-2.504,0.948V80.332L30.853,80.332z"/>
	<path fill-rule="evenodd" fill="#B1257D" d="M221.15,83.621v-0.074c0-2-1.097-3.156-2.771-3.156c-2.015,0-3.408,1.511-3.408,3.66
		c0,2.118,1.304,3.484,3.334,3.484c1.067,0,2.045-0.402,2.889-1.188c-0.637,0.104-1.171,0.163-1.6,0.163
		c-1.822,0-2.8-0.963-2.8-2.771v-0.119H221.15L221.15,83.621z M219.253,82.999l-2.459,0.356c0.029-1.571,0.489-2.371,1.333-2.371
		C218.823,80.984,219.253,81.681,219.253,82.999L219.253,82.999z M195.054,80.332l-2.326,0.578c0.4,0.694,0.548,1.316,0.548,2.04
		v4.884c0,1.198-0.163,1.835-0.77,1.835c-0.222,0-0.326-0.119-0.474-0.252l-0.995-0.857v1.731c0.267,0.074,0.549,0.104,0.845,0.104
		c2.092,0,3.173-1.082,3.173-3.198V80.332L195.054,80.332z M194.136,77.206c-0.741,0-1.082,0.252-1.082,0.83
		c0,0.578,0.341,0.844,1.082,0.844c0.726,0,1.081-0.266,1.081-0.844C195.217,77.458,194.861,77.206,194.136,77.206L194.136,77.206z
		 M174.796,76.865l-2.445,0.578c0.534,0.753,0.667,1.316,0.667,2.039v5.727c0,0.578-0.015,1.213-0.548,2.131h2.874
		c-0.548-0.919-0.548-1.568-0.548-2.131V76.865L174.796,76.865z M149.5,80.332l-2.326,0.578c0.4,0.696,0.548,1.318,0.548,2.045
		v2.252c0,0.578-0.015,1.215-0.548,2.134h2.874c-0.549-0.919-0.549-1.571-0.549-2.134v-3.482c0.311-0.029,0.563-0.059,0.771-0.059
		c0.697,0,1.141,0.266,1.763,0.785v-1.896c-0.193-0.103-0.4-0.163-0.637-0.163c-0.607,0-1.126,0.445-1.897,1.185V80.332
		L149.5,80.332z M120.779,80.481c0.669,0.681,0.936,1.333,1.173,1.926l2,5.055h1.037l2.104-5.292
		c0.178-0.445,0.415-1.023,1.082-1.689h-2.252c0.252,0.444,0.385,0.755,0.385,0.948c0,0.207-0.059,0.445-0.162,0.756l-1.156,3.556
		l-1.303-3.763c-0.089-0.267-0.134-0.459-0.134-0.578c0-0.207,0.178-0.489,0.474-0.918H120.779L120.779,80.481z M98.909,83.948
		v2.444c-0.267,0.06-0.534,0.074-0.83,0.074c-0.844,0-1.333-0.429-1.333-1.171C96.745,84.421,97.427,84.066,98.909,83.948
		L98.909,83.948z M100.612,82.406v-0.178c0-0.489-0.015-0.874-0.237-1.155c-0.4-0.489-1.097-0.682-2.134-0.682
		c-0.815,0-1.689,0.119-2.593,0.385v1.882c1.022-0.978,1.585-1.585,2.193-1.585c0.83,0,1.067,0.429,1.067,1.348v1.082
		c-0.282-0.015-0.534-0.029-0.785-0.029c-2.075,0-3.082,0.622-3.082,2c0,1.141,0.8,1.988,1.881,1.988
		c0.474,0,1.156-0.299,1.986-0.921c0.059,0.341,0.162,0.652,0.34,0.921l1.897-0.402c-0.489-0.726-0.533-1.319-0.533-1.941V82.406
		L100.612,82.406z M71.953,80.332l-2.326,0.578c0.4,0.696,0.548,1.318,0.548,2.045v2.252c0,0.578-0.015,1.215-0.548,2.134h2.874
		c-0.548-0.919-0.548-1.571-0.548-2.134v-3.482c0.311-0.029,0.563-0.059,0.77-0.059c0.697,0,1.141,0.266,1.763,0.785v-1.896
		c-0.193-0.103-0.4-0.163-0.637-0.163c-0.607,0-1.126,0.445-1.896,1.185V80.332L71.953,80.332z M47.294,81.354v5.008
		c-0.296,0.059-0.548,0.089-0.756,0.089c-1.348,0-2.162-0.949-2.162-2.623c0-1.629,0.859-2.667,2.074-2.667
		C46.731,81.162,47.012,81.221,47.294,81.354L47.294,81.354z M49.057,76.865l-2.4,0.548c0.355,0.652,0.637,1.126,0.637,1.926v1.497
		c-0.504-0.311-1.007-0.46-1.556-0.46c-1.748,0-3.185,1.586-3.185,3.808c0,1.956,1.141,3.277,2.563,3.277
		c0.607,0,1.289-0.358,2.178-0.95v0.995l2.296-0.536c-0.504-0.904-0.533-1.482-0.533-1.971V76.865L49.057,76.865z M20.961,80.332
		l-2.326,0.578c0.4,0.696,0.548,1.318,0.548,2.045v2.252c0,0.578-0.015,1.215-0.548,2.134h2.875
		c-0.548-0.919-0.548-1.571-0.548-2.134V80.332L20.961,80.332z M20.042,77.31c-0.741,0-1.082,0.267-1.082,0.845
		c0,0.578,0.341,0.829,1.082,0.829c0.726,0,1.081-0.252,1.081-0.829C21.124,77.576,20.768,77.31,20.042,77.31L20.042,77.31z"/>
	<path fill-rule="evenodd" fill="#0072BB" d="M9.394,80.481c0.178,0.251,0.267,0.415,0.267,0.533c0,0.133-0.074,0.311-0.222,0.489
		L7.483,83.74l2.267,3.6h2.549c-0.712-0.445-1.081-0.978-1.408-1.482l-1.897-2.875l1.348-1.185c0.178-0.148,0.711-0.681,1.882-1.318
		H9.394L9.394,80.481z"/>
	<path fill-rule="evenodd" fill="#0072BB" d="M7.349,76.865L4.89,77.441c0.533,0.753,0.666,1.314,0.666,2.037v5.729
		c0,0.578,0,1.215-0.533,2.134h2.859c-0.519-0.874-0.534-1.496-0.534-2.045V76.865L7.349,76.865z"/>
	<path fill-rule="evenodd" fill="#0072BB" d="M148.209,51.216c0,12.22,6.974,19.891,17.977,19.891
		c11.623,0,18.984-7.916,18.984-19.973c0-12.057-6.974-19.633-17.977-19.633C155.494,31.501,148.209,39.484,148.209,51.216
		L148.209,51.216z M166.574,34.515c5.192,0,8.446,5.865,8.446,16.701c0,10.998-3.254,16.782-8.291,16.782
		c-4.882,0-8.291-6.029-8.291-17.026C158.438,40.218,161.77,34.515,166.574,34.515L166.574,34.515z"/>
	<path fill-rule="evenodd" fill="#B1257D" d="M234.91,51.36c-1.284,3.678-2.848,6.813-4.71,9.419
		c-4.464,6.311-10.017,9.459-16.64,9.459c-6.624,0-12.185-3.149-16.666-9.459c-1.862-2.606-3.435-5.741-4.736-9.419
		c1.301-3.691,2.874-6.84,4.736-9.473c4.481-6.311,10.042-9.459,16.666-9.459c6.624,0,12.176,3.149,16.64,9.459
		C232.061,44.52,233.626,47.669,234.91,51.36L234.91,51.36z M230.845,51.36c-0.808-2.28-1.803-4.329-2.959-6.134
		c-2.797-4.289-6.232-6.976-10.314-8.061c1.777,1.208,3.206,3.08,4.286,5.605c1.097,2.592,1.641,5.456,1.641,8.591
		c0,3.094-0.536,5.917-1.607,8.468c-1.071,2.538-2.483,4.438-4.226,5.686C223.677,63.859,228.073,59.15,230.845,51.36L230.845,51.36
		z M221.432,51.36c0-3.393-0.774-6.297-2.321-8.713c-1.539-2.416-3.401-3.624-5.578-3.624c-1.148,0-2.236,0.38-3.265,1.113
		l-0.816-2.972c-6.029,1.642-10.442,6.365-13.231,14.195c0.816,2.28,1.794,4.302,2.942,6.08c2.772,4.261,6.173,6.948,10.212,8.075
		c-1.743-1.249-3.146-3.149-4.209-5.686c-1.063-2.551-1.599-5.374-1.599-8.468c0-1.886,0.212-3.719,0.621-5.496l1.998,0.991
		c-0.365,1.466-0.552,2.959-0.552,4.506c0,3.407,0.774,6.324,2.321,8.726c1.539,2.388,3.401,3.597,5.578,3.597
		c2.177,0,4.039-1.208,5.578-3.597C220.659,57.684,221.432,54.767,221.432,51.36L221.432,51.36z M219.511,51.36
		c0,2.565-0.587,4.764-1.752,6.596c-1.174,1.832-2.585,2.742-4.226,2.742c-1.658,0-3.07-0.909-4.234-2.742
		c-1.165-1.832-1.743-4.03-1.743-6.596c0-1.14,0.128-2.253,0.374-3.311l6.105,4.424l-2.865-9.663
		c0.748-0.529,1.531-0.801,2.364-0.801c1.641,0,3.053,0.909,4.226,2.742C218.924,46.583,219.511,48.781,219.511,51.36L219.511,51.36
		z"/>
	<path fill-rule="evenodd" fill="#E0B9D6" d="M216.051,27.166c0,1.21-0.877,1.815-2.63,1.815c-1.736,0-2.612-0.605-2.612-1.815
		V10.89c0-1.21,0.876-1.815,2.612-1.815c1.753,0,2.63,0.605,2.63,1.815V27.166L216.051,27.166z"/>
	<path fill-rule="evenodd" fill="#E0B9D6" d="M244.756,18.991c0,0.466-1.843,2.42-5.511,5.871c-2.237,2.052-4.473,4.115-6.709,6.188
		c-0.519,0.496-1.253,0.754-2.201,0.754c-1.807,0-2.719-0.486-2.719-1.458c0-0.466,1.825-2.42,5.511-5.871
		c2.237-2.053,4.473-4.115,6.71-6.188c0.519-0.496,1.252-0.754,2.201-0.754C243.843,17.533,244.756,18.02,244.756,18.991
		L244.756,18.991z"/>
	<path fill-rule="evenodd" fill="#E0B9D6" d="M182.258,18.947c0,0.466,1.843,2.42,5.511,5.871c2.237,2.053,4.473,4.115,6.709,6.188
		c0.519,0.496,1.252,0.754,2.201,0.754c1.807,0,2.72-0.486,2.72-1.458c0-0.466-1.825-2.42-5.511-5.871
		c-2.237-2.053-4.473-4.115-6.71-6.188c-0.519-0.496-1.252-0.754-2.201-0.754C183.171,17.489,182.258,17.975,182.258,18.947
		L182.258,18.947z"/>
	<path fill-rule="evenodd" fill="#E0B9D6" d="M199.39,19.983c-0.06,0.214,0.537,1.346,1.78,3.399
		c0.764,1.228,1.528,2.461,2.289,3.698c0.175,0.294,0.479,0.506,0.914,0.627c0.83,0.231,1.311,0.124,1.435-0.322
		c0.06-0.214-0.529-1.344-1.779-3.399c-0.764-1.228-1.528-2.461-2.29-3.698c-0.175-0.294-0.478-0.506-0.914-0.627
		C199.995,19.431,199.514,19.537,199.39,19.983L199.39,19.983z"/>
	<path fill-rule="evenodd" fill="#E0B9D6" d="M227.487,19.895c0.059,0.214-0.537,1.347-1.78,3.399
		c-0.764,1.228-1.527,2.461-2.289,3.699c-0.175,0.294-0.479,0.506-0.914,0.627c-0.83,0.231-1.31,0.124-1.435-0.322
		c-0.059-0.214,0.529-1.344,1.78-3.4c0.764-1.228,1.527-2.461,2.289-3.698c0.175-0.294,0.479-0.506,0.914-0.627
		C226.882,19.343,227.363,19.449,227.487,19.895L227.487,19.895z"/>
</g>
</svg>
